
<svg xmlns="http://www.w3.org/2000/svg" version="1.1" xmlns:xlink="http://www.w3.org/1999/xlink" preserveAspectRatio="none" x="0px" y="0px" width="200px" height="200px" viewBox="0 0 200 200">
<defs>
<g id="Layer0_0_FILL">
<path fill="#333333" stroke="none" d="
M 113.7 18.7
Q 116.7 15.85 116.8 11.75 116.95 7.7 114.1 4.65 111.3 1.6 107.25 1.5 103.15 1.4 100.1 4.2
L 6.95 91.15
Q 3.95 93.95 3.8 98.05 3.7 102.1 6.5 105.15 9.35 108.15 13.4 108.3 17.5 108.4 20.5 105.65
L 113.7 18.7
M 134.6 43.9
Q 137.65 41.1 137.8 37.05 137.95 32.9 135.1 29.9 132.35 26.9 128.2 26.7 124.15 26.55 121.1 29.4
L 27.85 116.3
Q 24.85 119.05 24.7 123.2 24.55 127.25 27.35 130.3 30.15 133.25 34.25 133.45 38.35 133.6 41.35 130.8
L 134.6 43.9
M 195.35 195.65
Q 198.15 193.1 198.2 189.45 198.3 185.6 195.55 182.9
L 111.45 97.65
Q 107.75 93.8 102.7 93.3 97.8 92.85 94.55 96.1 91.45 99.25 91.85 104.3 92.4 109.05 96.25 112.75
L 182.15 195.45
Q 184.95 198.05 188.8 198.15 192.7 198.2 195.35 195.65 Z"/>
</g>
</defs>

<g transform="matrix( 1, 0, 0, 1, 0,0) ">
<use xlink:href="#Layer0_0_FILL"/>
</g>
</svg>
