
<svg xmlns="http://www.w3.org/2000/svg" version="1.1" xmlns:xlink="http://www.w3.org/1999/xlink" preserveAspectRatio="none" x="0px" y="0px" width="200px" height="200px" viewBox="0 0 200 200">
<defs>
<g id="Layer0_0_FILL">
<path fill="#333333" stroke="none" d="
M 192.05 93.6
Q 189.15 90.7 185.05 90.7
L 151.2 90.7 151.2 15.7
Q 151.2 11.6 148.4 8.75 145.45 5.9 141.35 5.9
L 56.5 5.9
Q 52.4 5.9 49.5 8.75 46.6 11.6 46.6 15.7
L 46.6 90.7 15.6 90.7
Q 11.5 90.7 8.65 93.6 5.75 96.4 5.75 100.5
L 5.75 185.4
Q 5.75 189.5 8.65 192.35 11.5 195.2 15.6 195.2
L 100.2 195.2
Q 100.35 195.2 100.5 195.2
L 185.05 195.2
Q 189.15 195.2 192.05 192.35 194.9 189.5 194.9 185.4
L 194.9 100.5
Q 194.9 96.4 192.05 93.6
M 175.2 110.35
L 175.2 175.55 110.35 175.55 110.35 110.45 141.35 110.45
Q 141.9 110.45 142.5 110.35
L 175.2 110.35
M 100.5 90.7
Q 100.35 90.7 100.2 90.7
L 66.3 90.7 66.3 25.6 131.5 25.6 131.5 90.7 100.5 90.7
M 55.4 110.35
Q 55.9 110.45 56.5 110.45
L 90.35 110.45 90.35 175.55 25.5 175.55 25.5 110.35 55.4 110.35 Z"/>
</g>
</defs>

<g transform="matrix( 1, 0, 0, 1, 0,0) ">
<use xlink:href="#Layer0_0_FILL"/>
</g>
</svg>
