
<svg xmlns="http://www.w3.org/2000/svg" version="1.1" xmlns:xlink="http://www.w3.org/1999/xlink" preserveAspectRatio="none" x="0px" y="0px" width="200px" height="200px" viewBox="0 0 200 200">
<defs>
<g id="Layer0_0_FILL">
<path fill="#333333" stroke="none" d="
M 99.25 93.25
Q 94.26875 93.8173828125 90.5 97.65
L 6.45 182.85
Q 3.6958984375 185.5833984375 3.8 189.4 3.85390625 193.1037109375 6.65 195.6 9.28359375 198.1958984375 13.2 198.15 17.028125 198.0525390625 19.85 195.4
L 105.7 112.75
Q 109.5880859375 109.0744140625 110.15 104.25 110.531640625 99.2455078125 107.4 96.1 104.1921875 92.837890625 99.25 93.25
M 177.3 123.2
Q 177.15 119.05 174.15 116.3
L 80.9 29.4
Q 77.85 26.55 73.8 26.7 69.65 26.9 66.9 29.9 64.05 32.9 64.2 37.05 64.35 41.1 67.4 43.9
L 160.65 130.8
Q 163.65 133.6 167.75 133.45 171.85 133.25 174.65 130.3 177.45 127.25 177.3 123.2
M 198.2 98.05
Q 198.05 93.95 195.05 91.15
L 101.9 4.2
Q 98.85 1.4 94.75 1.5 90.7 1.6 87.9 4.65 85.05 7.7 85.2 11.75 85.3 15.85 88.3 18.7
L 181.5 105.65
Q 184.5 108.4 188.6 108.3 192.65 108.15 195.5 105.15 198.3 102.1 198.2 98.05 Z"/>
</g>
</defs>

<g transform="matrix( 1, 0, 0, 1, 0,0) ">
<use xlink:href="#Layer0_0_FILL"/>
</g>
</svg>
