
<svg xmlns="http://www.w3.org/2000/svg" version="1.1" xmlns:xlink="http://www.w3.org/1999/xlink" preserveAspectRatio="none" x="0px" y="0px" width="200px" height="200px" viewBox="0 0 200 200">
<defs>
<g id="Layer0_0_FILL">
<path fill="#333333" stroke="none" d="
M 196.65 101.15
L 196.65 100.9
Q 196.3 61.8 168.65 34 140.65 6 100.9 6 61.3 6 33.2 34 5.55 61.7 5.15 100.85
L 5.15 101.45
Q 5.15 101.6 5.15 101.7 5.15 141.45 33.2 169.45 61.3 197.45 100.9 197.45 140.65 197.45 168.65 169.45 196.65 141.45 196.65 101.7 196.65 101.6 196.65 101.45 196.65 101.35 196.65 101.15
M 155 47.7
L 155 47.6
Q 173.65 66.35 176.75 91.55
L 25.1 91.55
Q 28.2 66.35 46.8 47.7
L 46.85 47.6
Q 69.3 25.25 100.9 25.25 132.6 25.25 155 47.7
M 46.8 155.8
L 46.85 155.8
Q 27.75 136.7 24.95 110.8
L 176.85 110.8
Q 174.05 136.7 155 155.8 132.6 178.15 100.9 178.15 69.25 178.15 46.8 155.8 Z"/>
</g>
</defs>

<g transform="matrix( 1, 0, 0, 1, 0,0) ">
<use xlink:href="#Layer0_0_FILL"/>
</g>
</svg>
