
<svg xmlns="http://www.w3.org/2000/svg" version="1.1" xmlns:xlink="http://www.w3.org/1999/xlink" preserveAspectRatio="none" x="0px" y="0px" width="200px" height="200px" viewBox="0 0 200 200">
<defs>
<g id="Layer0_0_FILL">
<path fill="#333333" stroke="none" d="
M 133.8 19.1
L 133.75 19.05
Q 119.1 4.55 98.3 4.55 77.5 4.55 62.8 19.1 48.05 33.65 48.05 54.3 48.05 74.95 62.8 89.55 74.3 100.9 89.55 103.35
L 89.55 189.55
Q 89.55 193.3 92.2 195.9 94.8 198.55 98.55 198.55 102.3 198.55 104.95 195.9 107.55 193.3 107.55 189.55
L 107.55 103.25
Q 122.5 100.7 133.8 89.55 148.55 74.95 148.55 54.3 148.55 33.65 133.8 19.1
M 98.3 22.55
Q 111.7 22.55 121.15 31.9 130.55 41.15 130.55 54.3 130.55 67.45 121.15 76.75 111.7 86.05 98.3 86.05 84.9 86.05 75.45 76.75
L 75.4 76.7
Q 66.05 67.45 66.05 54.3 66.05 41.15 75.45 31.9 84.9 22.55 98.3 22.55 Z"/>
</g>
</defs>

<g transform="matrix( 1, 0, 0, 1, 0,0) ">
<use xlink:href="#Layer0_0_FILL"/>
</g>
</svg>
