
<svg xmlns="http://www.w3.org/2000/svg" version="1.1" xmlns:xlink="http://www.w3.org/1999/xlink" preserveAspectRatio="none" x="0px" y="0px" width="200px" height="200px" viewBox="0 0 200 200">
<defs>
<g id="Layer0_0_FILL">
<path fill="#333333" stroke="none" d="
M 178.95 111.4
Q 178.95 126.7 168.15 137.45 159.237890625 146.362109375 146.85 148 135.501953125 147.7111328125 127.35 143.4
L 126.2 142.75
Q 115.7677734375 136.260546875 108 115.25
L 107.35 113.35
Q 106.2798828125 110.116796875 105.15 106.5 105.094140625 106.3490234375 105.05 106.15 103.5080078125 101.32890625 101.9 95.9 95.1 72.5154296875 86.25 65.95 77.4521484375 59.3796875 71.15 57.15 64.887109375 54.96484375 52.75 55.1
L 52.6 55.1
Q 32.75 56.8 18.3 71.4 1.8 88 1.8 111.4 1.8 129.25 11.3 143.15 14.35 147.55 18.3 151.55 31.1 164.35 47.95 167.25 51.95 167.9 55.4 165.55 58.7 163.2 59.4 159.15 60.1 155.1 57.75 151.75 55.4 148.35 51.35 147.65 40.6 145.7 32.4 137.45 25.8 130.85 23.25 122.55 21.65 117.3 21.65 111.4 21.65 96.15 32.4 85.4 41.7 76.05 54.45 74.9 59.7697265625 74.49921875 64.65 76.3 69.5826171875 78.1513671875 74.15 83.35 78.71484375 88.5978515625 87.55 112.2 88.1857421875 113.8962890625 88.8 115.5 94.8787109375 137.021875 105.25 149.65 105.705078125 150.345703125 105.75 150.4 107.0646484375 151.873828125 108.4 153.2
L 110 154.75
Q 112.2353515625 156.826953125 114.55 158.55 114.7369140625 158.69609375 114.9 158.8 128.72890625 168.984375 146.4 168 146.6 168 146.9 168 167.4 166.4 182.2 151.55
L 182.25 151.5
Q 198.8 135 198.8 111.4 198.8 87.95 182.25 71.4 172.2 61.35 159.75 57.5 155.9 56.25 152.2 58.15 148.55 60 147.35 63.95 146.05 67.8 147.95 71.5 149.85 75.15 153.8 76.4 161.7 79.05 168.15 85.45 178.95 96.2 178.95 111.4 Z"/>
</g>
</defs>

<g transform="matrix( 1, 0, 0, 1, 0,0) ">
<use xlink:href="#Layer0_0_FILL"/>
</g>
</svg>
