
<svg xmlns="http://www.w3.org/2000/svg" version="1.1" xmlns:xlink="http://www.w3.org/1999/xlink" preserveAspectRatio="none" x="0px" y="0px" width="200px" height="200px" viewBox="0 0 200 200">
<defs>
<g id="Layer0_0_FILL">
<path fill="#333333" stroke="none" d="
M 188.75 94.55
Q 192.5 94.55 195.15 91.95 197.75 89.3 197.75 85.55 197.75 81.8 195.15 79.2 192.5 76.55 188.75 76.55
L 115.65 76.55
Q 114.65 76.45 113.8 76.45 113.05 76.45 112.35 76.45 110.25 76.5 108.8 76.95 106.3 77.7 104.6 81.05 102.9 84.35 104.1 87.9 106.3 94.5 106.3 102.05 106.3 120.1 93.7 132.8
L 93.65 132.85
Q 81.1 145.55 63.3 145.55 45.5 145.55 32.9 132.85 20.3 120.1 20.3 102.05 20.3 84 32.9 71.25 43.5 60.55 57.8 58.9 61.5 58.45 63.85 55.55 66.15 52.65 65.75 48.95 65.35 45.25 62.4 42.95 59.5 40.6 55.8 41 35.3 43.25 20.1 58.55
L 20.1 58.6
Q 2.3 76.6 2.3 102.05 2.3 127.5 20.1 145.5 38 163.55 63.3 163.55 88.6 163.55 106.45 145.5 124.3 127.5 124.3 102.05 124.3 98.2 123.9 94.55
L 188.75 94.55 Z"/>
</g>
</defs>

<g transform="matrix( 1, 0, 0, 1, 0,0) ">
<use xlink:href="#Layer0_0_FILL"/>
</g>
</svg>
