
<svg xmlns="http://www.w3.org/2000/svg" version="1.1" xmlns:xlink="http://www.w3.org/1999/xlink" preserveAspectRatio="none" x="0px" y="0px" width="200px" height="200px" viewBox="0 0 200 200">
<defs>
<g id="Layer0_0_FILL">
<path fill="#333333" stroke="none" d="
M 186.75 13.45
Q 183.25 14.5 181.5 17.7
L 108.85 151.3 108.85 14.1
Q 108.85 10.4 106.3 7.8 103.7 5.25 100.05 5.25 99.95 5.25 99.85 5.25
L 99.7 5.25
Q 99.5 5.25 99.25 5.25 96 5.45 93.6 7.8 91.05 10.4 91.05 14.1
L 91.05 151.3 18.4 17.7
Q 16.65 14.5 13.15 13.45 9.7 12.4 6.45 14.15 3.25 15.95 2.2 19.4 1.15 22.9 2.9 26.15
L 91.6 189.25
Q 93.4 192.45 96.85 193.45 98.55 193.95 100.1 193.85 101.55 193.9 103.05 193.45 106.5 192.45 108.3 189.25
L 196.95 26.15
Q 198.75 22.9 197.7 19.4 196.65 15.95 193.45 14.15 190.2 12.4 186.75 13.45 Z"/>
</g>
</defs>

<g transform="matrix( 1, 0, 0, 1, 0,0) ">
<use xlink:href="#Layer0_0_FILL"/>
</g>
</svg>
