
<svg xmlns="http://www.w3.org/2000/svg" version="1.1" xmlns:xlink="http://www.w3.org/1999/xlink" preserveAspectRatio="none" x="0px" y="0px" width="200px" height="200px" viewBox="0 0 200 200">
<defs>
<g id="Layer0_0_FILL">
<path fill="#333333" stroke="none" d="
M 197.7 179.7
Q 198.75 176.2 196.95 172.95
L 108.3 9.85
Q 106.5 6.65 103.05 5.65 101.55 5.2 100.1 5.25 98.55 5.15 96.85 5.65 93.4 6.65 91.6 9.85
L 2.9 172.95
Q 1.15 176.2 2.2 179.7 3.25 183.15 6.45 184.95 9.7 186.7 13.15 185.65 16.65 184.6 18.4 181.4
L 91.05 47.8 91.05 185
Q 91.05 188.7 93.6 191.3 96 193.65 99.25 193.85 99.5 193.85 99.7 193.85
L 99.85 193.85
Q 99.95 193.85 100.05 193.85 103.7 193.85 106.3 191.3 108.85 188.7 108.85 185
L 108.85 47.8 181.5 181.4
Q 183.25 184.6 186.75 185.65 190.2 186.7 193.45 184.95 196.65 183.15 197.7 179.7 Z"/>
</g>
</defs>

<g transform="matrix( 1, 0, 0, 1, 0,0) ">
<use xlink:href="#Layer0_0_FILL"/>
</g>
</svg>
