
<svg xmlns="http://www.w3.org/2000/svg" version="1.1" xmlns:xlink="http://www.w3.org/1999/xlink" preserveAspectRatio="none" x="0px" y="0px" width="200px" height="200px" viewBox="0 0 200 200">
<defs>
<g id="Layer0_0_FILL">
<path fill="#333333" stroke="none" d="
M 190.45 88.8
Q 190.35 88.7 190.15 88.6
L 30.2 3.6
Q 26.9 1.85 23.35 2.95 19.8 4.05 18.05 7.35 16.3 10.65 17.4 14.2 18.5 17.75 21.75 19.5
L 149.8 87.55 12.5 87.55
Q 8.75 87.55 6.1 90.2 3.5 92.8 3.5 96.55 3.5 100.3 6.1 102.95 8.75 105.55 12.5 105.55
L 152.5 105.55 16.2 179.65
Q 12.95 181.45 11.85 185 10.8 188.55 12.6 191.85 14.4 195.1 17.95 196.2 21.5 197.25 24.8 195.45
L 191.25 104.95
Q 194.5 103.15 195.55 99.6 196.65 96.05 194.85 92.75 193.3 89.95 190.45 88.8 Z"/>
</g>
</defs>

<g transform="matrix( 1, 0, 0, 1, 0,0) ">
<use xlink:href="#Layer0_0_FILL"/>
</g>
</svg>
