
<svg xmlns="http://www.w3.org/2000/svg" version="1.1" xmlns:xlink="http://www.w3.org/1999/xlink" preserveAspectRatio="none" x="0px" y="0px" width="200px" height="200px" viewBox="0 0 200 200">
<defs>
<g id="Layer0_0_FILL">
<path fill="#333333" stroke="none" d="
M 176.15 2.95
Q 172.5986328125 1.850390625 169.25 3.6
L 9.3 88.6
Q 9.1681640625 88.683984375 9 88.75 6.1826171875 89.9466796875 4.65 92.75 2.8642578125 96.0318359375 3.9 99.6 4.979296875 103.1546875 8.25 104.95
L 174.7 195.45
Q 177.983203125 197.2294921875 181.55 196.15 185.1111328125 195.1220703125 186.9 191.85 188.6859375 188.56796875 187.6 185 186.570703125 181.4451171875 183.3 179.65
L 47 105.55 187 105.55
Q 190.7333984375 105.55546875 193.35 102.9 196.00546875 100.2833984375 196 96.55 196.00546875 92.8166015625 193.35 90.15 190.7333984375 87.54453125 187 87.55
L 49.65 87.55 177.7 19.5
Q 180.9990234375 17.7490234375 182.1 14.2 183.2001953125 10.64921875 181.45 7.35 179.699609375 4.0513671875 176.15 2.95 Z"/>
</g>
</defs>

<g transform="matrix( 1, 0, 0, 1, 0,0) ">
<use xlink:href="#Layer0_0_FILL"/>
</g>
</svg>
