
<svg xmlns="http://www.w3.org/2000/svg" version="1.1" xmlns:xlink="http://www.w3.org/1999/xlink" preserveAspectRatio="none" x="0px" y="0px" width="200px" height="200px" viewBox="0 0 200 200">
<defs>
<g id="Layer0_0_FILL">
<path fill="#333333" stroke="none" d="
M 194.65 114.1
Q 191.7 111 187.4 111
L 103.65 110.75 64.2 43.45
Q 62.3 40.25 58.75 39 55.3 37.65 51.7 39 48.25 40.3 46.35 43.55
L 5.2 116.2
Q 3.4 119.45 4.05 123.05 4.75 126.75 7.6 129.1 10.4 131.5 14.15 131.5
L 21.9 131.55
Q 22.2 131.55 22.45 131.55
L 24.65 131.55
Q 25.2 131.55 25.6 131.55
L 93.75 131.25
Q 94.2 131.25 94.6 131.25
L 187.35 131.5
Q 191.65 131.5 194.6 128.6 197.7 125.55 197.7 121.35 197.7 117 194.65 114.1
M 79.85 110.75
L 31.75 111.05 55.45 69.2 79.85 110.75 Z"/>
</g>
</defs>

<g transform="matrix( 1, 0, 0, 1, 0,0) ">
<use xlink:href="#Layer0_0_FILL"/>
</g>
</svg>
