
<svg xmlns="http://www.w3.org/2000/svg" version="1.1" xmlns:xlink="http://www.w3.org/1999/xlink" preserveAspectRatio="none" x="0px" y="0px" width="200px" height="200px" viewBox="0 0 200 200">
<defs>
<g id="Layer0_0_FILL">
<path fill="#333333" stroke="none" d="
M 196.55 123.05
Q 197.2 119.45 195.4 116.2
L 154.25 43.55
Q 152.35 40.3 148.9 39 145.3 37.65 141.85 39 138.3 40.25 136.4 43.45
L 96.95 110.75 13.2 111
Q 8.9 111 5.95 114.1 2.9 117 2.9 121.35 2.9 125.55 6 128.6 8.95 131.5 13.25 131.5
L 106 131.25
Q 106.4 131.25 106.85 131.25
L 175 131.55
Q 175.4 131.55 175.95 131.55
L 178.15 131.55
Q 178.4 131.55 178.7 131.55
L 186.45 131.5
Q 190.2 131.5 193 129.1 195.85 126.75 196.55 123.05
M 120.75 110.75
L 145.15 69.2 168.85 111.05 120.75 110.75 Z"/>
</g>
</defs>

<g transform="matrix( 1, 0, 0, 1, 0,0) ">
<use xlink:href="#Layer0_0_FILL"/>
</g>
</svg>
