
<svg xmlns="http://www.w3.org/2000/svg" version="1.1" xmlns:xlink="http://www.w3.org/1999/xlink" preserveAspectRatio="none" x="0px" y="0px" width="200px" height="200px" viewBox="0 0 200 200">
<defs>
<g id="Layer0_0_FILL">
<path fill="#333333" stroke="none" d="
M 161.15 53.4
Q 130.3 37.35 81 23.6 32.15 9.85 13.85 6.3 10.15 5.6 7.05 8.05 3.95 10.45 3.3 14.6 2.6 18.75 4.8 22.3 7 25.75 10.7 26.5 28.6 29.95 76.55 43.45
L 76.6 43.45
Q 123.9 56.7 153.45 71.95 177.1 84.25 178.75 98.9 177.35 113.25 143.15 129.7 102.1 149.45 66.05 161.45 30.2 173.25 11.2 177.05 7.45 177.8 5.3 181.3 3.15 184.8 3.8 188.95 4.45 193.1 7.6 195.55 10.7 197.9 14.4 197.2 34.05 193.25 71.2 181.05 108.15 168.75 150.35 148.55 199.55 124.75 197 98.35 197.65 72.3 161.15 53.4 Z"/>
</g>
</defs>

<g transform="matrix( 1, 0, 0, 1, 0,0) ">
<use xlink:href="#Layer0_0_FILL"/>
</g>
</svg>
