
<svg xmlns="http://www.w3.org/2000/svg" version="1.1" xmlns:xlink="http://www.w3.org/1999/xlink" preserveAspectRatio="none" x="0px" y="0px" width="200px" height="200px" viewBox="0 0 200 200">
<defs>
<g id="Layer0_0_FILL">
<path fill="#333333" stroke="none" d="
M 193.3 94.15
Q 190.4 91.2 186.2 91.2
L 109.95 91.2 109.95 14.9
Q 109.95 10.75 107.05 7.9 104.15 4.95 99.95 4.95 95.85 4.95 93 7.9 90.05 10.75 90.05 14.9
L 90.05 187.35
Q 90.05 191.5 93 194.4 95.85 197.25 99.95 197.25 104.15 197.25 107.05 194.4 109.95 191.5 109.95 187.35
L 109.95 111.05 186.2 111.05
Q 190.4 111.05 193.3 108.15 196.1 105.25 196.1 101.1 196.1 97 193.3 94.15 Z"/>
</g>
</defs>

<g transform="matrix( 1, 0, 0, 1, 0,0) ">
<use xlink:href="#Layer0_0_FILL"/>
</g>
</svg>
