
<svg xmlns="http://www.w3.org/2000/svg" version="1.1" xmlns:xlink="http://www.w3.org/1999/xlink" preserveAspectRatio="none" x="0px" y="0px" width="200px" height="200px" viewBox="0 0 200 200">
<defs>
<g id="Layer0_0_FILL">
<path fill="#333333" stroke="none" d="
M 188.05 194.35
Q 191.6 194.35 194.4 191.85 197.1 189.3 197.75 185.4 198.35 181.5 196.55 178.05
L 108.9 9.25
Q 107.05 5.8 103.75 4.5 100.4 3.1 97.05 4.5 93.7 5.8 91.95 9.25
L 3.9 177.75
Q 2.1 181.2 2.8 185.05 3.35 188.9 6.1 191.5 8.8 194 12.45 194
L 188.05 194.35
M 110.05 172.5
L 110.05 55.05 171.1 172.65 110.05 172.5
M 29.4 172.4
L 92.05 52.45 92.05 172.5 29.4 172.4 Z"/>
</g>
</defs>

<g transform="matrix( 1, 0, 0, 1, 0,0) ">
<use xlink:href="#Layer0_0_FILL"/>
</g>
</svg>
