
<svg xmlns="http://www.w3.org/2000/svg" version="1.1" xmlns:xlink="http://www.w3.org/1999/xlink" preserveAspectRatio="none" x="0px" y="0px" width="200px" height="200px" viewBox="0 0 200 200">
<defs>
<g id="Layer0_0_FILL">
<path fill="#333333" stroke="none" d="M426 137v-63l106 -189l-61 -34l-80 143l-80 -144l-61 34l106 190v64l-45 -82l-61 34l106 191v244l-106 190l61 34l80 -143l80 144l61 -34l-106 -189v-246l106 -190l-61 -34zM856 38q26 0 47.5 -12.5t34 -34t12.5 -47.5q0 -38 -27.5 -65.5t-66 -27.5t-66 27.5t-27.5 65.5
q0 9 2 18q-13 14 -25 30q-12 -16 -24 -30q1 -9 1 -18q0 -38 -27.5 -65.5t-66 -27.5t-66 27.5t-27.5 66t27.5 66t66.5 27.5q28 0 51 -16q14 18 26 39q-3 7 -5 13q-43 102 -43 227q0 134 48 240q-12 21 -25 37q-24 -16 -52 -16q-39 0 -66.5 27.5t-27.5 66t27.5 66t66 27.5
t66 -27.5t27.5 -65.5q0 -9 -1 -16q13 -14 24 -30q12 16 24 30q-1 7 -1 16q0 38 27.5 65.5t66 27.5t66 -27.5t27.5 -65.5q0 -26 -12.5 -47.5t-34 -34t-47.5 -12.5q-28 0 -52 16q-13 -16 -25 -37q48 -106 48 -240q0 -125 -42 -227q-3 -7 -6 -13q12 -21 26 -39q23 16 51 16z
M856.5 679q-9.5 0 -16.5 -7t-7 -16.5t7 -16.5t16.5 -7t16.5 7t7 16.5t-7 16.5t-16.5 7zM600 655.5q0 -9.5 7 -16.5t16.5 -7t16.5 7t7 16.5t-7 16.5t-16.5 7t-16.5 -7t-7 -16.5zM623.5 -79q9.5 0 16.5 7t7 16q0 7 -3 12.5t-8.5 8.5t-11.5 3q-10 0 -17 -7t-7 -16.5t7 -16.5
t16.5 -7zM723 301q0 -73 17 -139q17 66 17 139t-17 139q-17 -66 -17 -139zM856.5 -79q9.5 0 16.5 7t7 16.5t-7 16.5t-17 7q-4 0 -8.5 -2t-7.5 -5t-5 -7.5t-2 -9.5q0 -9 7 -16t16.5 -7zM211 91l54 -45l-161 -194l-54 44zM266 350l-54 -45l-162 196l54 44zM266 553l-54 -45
l-162 196l54 44z" />
</g>
</defs>

<g transform="matrix( 1, 0, 0, 1, 0,0) ">
<use xlink:href="#Layer0_0_FILL"/>
</g>
</svg>
