
<svg xmlns="http://www.w3.org/2000/svg" version="1.1" xmlns:xlink="http://www.w3.org/1999/xlink" preserveAspectRatio="none" x="0px" y="0px" width="200px" height="200px" viewBox="0 0 200 200">
<defs>
<g id="Layer0_0_FILL">
<path fill="#333333" stroke="none" d="
M 165 101.35
Q 165.1 100.45 165.1 99.7 165.1 97.15 163.8 95.1
L 108.25 7.6
Q 106.35 4.7 102.85 3.6 101.1 3 99.4 3.05 97.6 3.1 95.9 3.8 92.35 5.05 90.5 8.05
L 35.95 97.05
Q 34.2 98.85 33.65 101.25 33.4 102.25 33.4 103.25 33.4 105.4 34.5 107.4
L 34.65 107.5 34.65 107.55
Q 34.75 107.75 34.9 108.05
L 90.65 194.75
Q 92.55 197.7 96.05 198.7 97.75 199.25 99.5 199.25 101.2 199.2 102.95 198.55 106.45 197.3 108.35 194.3
L 163.3 105.55
Q 163.9 104.45 164.3 103.45 164.65 102.45 165 101.35
M 99.35 31.4
L 137.25 91.05 61.5 93.1 99.35 31.4
M 137.45 109.8
L 99.5 171.1 61.45 111.9 137.45 109.8 Z"/>
</g>
</defs>

<g transform="matrix( 1, 0, 0, 1, 0,0) ">
<use xlink:href="#Layer0_0_FILL"/>
</g>
</svg>
