
<svg xmlns="http://www.w3.org/2000/svg" version="1.1" xmlns:xlink="http://www.w3.org/1999/xlink" preserveAspectRatio="none" x="0px" y="0px" width="200px" height="200px" viewBox="0 0 200 200">
<defs>
<g id="Layer0_0_FILL">
<path fill="#333333" stroke="none" d="
M 139.9 4.4
Q 135.95 5.55 133.9 9.6
L 100.15 75.75 65.8 9.6
Q 63.7 5.55 59.75 4.4 58.4 4 57.15 4 54.6 4 52.25 5.55 48.7 7.8 47.7 12.35 46.65 16.65 48.75 20.7
L 91.75 103.5
Q 93.55 106.9 96.95 108.3 100.3 109.7 103.7 108.3 107.05 106.95 108.85 103.5
L 151.1 20.7
Q 153.1 16.65 152.05 12.35 150.95 7.8 147.4 5.55 145 4 142.45 4 141.2 4 139.9 4.4
M 182.6 2.2
Q 178.6 3.4 176.55 7.55
L 100.75 161.75 23.4 7.55
Q 21.4 3.45 17.45 2.25 13.4 0.95 9.95 3.35 6.4 5.65 5.4 10.3 5 11.9 5 13.45 5 16.35 6.35 19.05
L 92.3 190.4
Q 94.15 194 97.5 195.45 99.2 196.2 100.9 196.2 102.6 196.2 104.3 195.45 107.65 194.05 109.45 190.4
L 193.7 19.05
Q 195.05 16.25 195.05 13.3 195 11.75 194.75 10.35 193.6 5.75 190.05 3.4 186.45 0.95 182.6 2.2 Z"/>
</g>
</defs>

<g transform="matrix( 1, 0, 0, 1, 0,0) ">
<use xlink:href="#Layer0_0_FILL"/>
</g>
</svg>
