
<svg xmlns="http://www.w3.org/2000/svg" version="1.1" xmlns:xlink="http://www.w3.org/1999/xlink" preserveAspectRatio="none" x="0px" y="0px" width="200px" height="200px" viewBox="0 0 200 200">
<defs>
<g id="Layer0_0_FILL">
<path fill="#333333" stroke="none" d="
M 98.55 4.05
Q 94.8 4.05 92.2 6.7 89.55 9.3 89.55 13.05
L 89.55 99.25
Q 74.3 101.7 62.8 113.05 48.05 127.65 48.05 148.3 48.05 168.95 62.8 183.5 77.5 198.05 98.3 198.05 119.1 198.05 133.75 183.55
L 133.8 183.5
Q 148.55 168.95 148.55 148.3 148.55 127.65 133.8 113.05 122.5 101.9 107.55 99.35
L 107.55 13.05
Q 107.55 9.3 104.95 6.7 102.3 4.05 98.55 4.05
M 66.05 148.3
Q 66.05 135.15 75.4 125.9
L 75.45 125.85
Q 84.9 116.55 98.3 116.55 111.7 116.55 121.15 125.85 130.55 135.15 130.55 148.3 130.55 161.45 121.15 170.7 111.7 180.05 98.3 180.05 84.9 180.05 75.45 170.7 66.05 161.45 66.05 148.3 Z"/>
</g>
</defs>

<g transform="matrix( 1, 0, 0, 1, 0,0) ">
<use xlink:href="#Layer0_0_FILL"/>
</g>
</svg>
