
<svg xmlns="http://www.w3.org/2000/svg" version="1.1" xmlns:xlink="http://www.w3.org/1999/xlink" preserveAspectRatio="none" x="0px" y="0px" width="200px" height="200px" viewBox="0 0 200 200">
<defs>
<g id="Layer0_0_FILL">
<path fill="#333333" stroke="none" d="
M 182.95 6.25
Q 179.6 8.05 178.45 11.65
L 132.95 161.6 81.6 13
Q 80.65 10.25 78.25 8.55 75.85 6.8 72.95 6.8 70.05 6.8 67.65 8.55 65.25 10.25 64.25 13
L 5.6 182.7
Q 4.65 185.55 5.5 188.45 6.45 191.35 8.9 193.1 11.3 194.9 14.3 194.9
L 131.6 194.9
Q 132.55 194.9 133.4 194.75 136.6 195.35 139.55 193.85 142.85 192 144 188.4
L 196 17
Q 197.1 13.35 195.35 10.05 193.5 6.65 189.95 5.55 186.25 4.4 182.95 6.25
M 63.3 176.55
L 27.2 176.55 63.3 72 63.3 176.55
M 118.75 176.55
L 81.65 176.55 81.65 69.35 118.75 176.55 Z"/>
</g>
</defs>

<g transform="matrix( 1, 0, 0, 1, 0,0) ">
<use xlink:href="#Layer0_0_FILL"/>
</g>
</svg>
