
<svg xmlns="http://www.w3.org/2000/svg" version="1.1" xmlns:xlink="http://www.w3.org/1999/xlink" preserveAspectRatio="none" x="0px" y="0px" width="200px" height="200px" viewBox="0 0 200 200">
<defs>
<g id="Layer0_0_FILL">
<path fill="#333333" stroke="none" d="
M 192.25 8.7
Q 189.5 5.95 185.55 5.95
L 100.6 5.95
Q 100.4 5.95 100.2 5.95
L 15.3 5.95
Q 11.35 5.95 8.6 8.7 5.8 11.45 5.8 15.4
L 5.8 186.05
Q 5.8 190 8.6 192.8 11.35 195.5 15.3 195.5
L 100.2 195.5
Q 100.4 195.5 100.6 195.5
L 185.55 195.5
Q 189.5 195.5 192.25 192.8 195 190 195 186.05
L 195 15.4
Q 195 11.45 192.25 8.7
M 176.1 24.85
L 176.1 91.25 110.1 91.25 110.1 24.85 176.1 24.85
M 176.1 110.2
L 176.1 176.6 110.1 176.6 110.1 110.2 176.1 110.2
M 90.75 24.85
L 90.75 91.25 24.75 91.25 24.75 24.85 90.75 24.85
M 24.75 176.6
L 24.75 110.2 90.75 110.2 90.75 176.6 24.75 176.6 Z"/>
</g>
</defs>

<g transform="matrix( 1, 0, 0, 1, 0,0) ">
<use xlink:href="#Layer0_0_FILL"/>
</g>
</svg>
