
<svg xmlns="http://www.w3.org/2000/svg" version="1.1" xmlns:xlink="http://www.w3.org/1999/xlink" preserveAspectRatio="none" x="0px" y="0px" width="200px" height="200px" viewBox="0 0 200 200">
<defs>
<g id="Layer0_0_FILL">
<path fill="#333333" stroke="none" d="
M 195.65 97.1
Q 195.65 55.35 166.15 25.85 150 9.7 130.25 2.5 126.5 1.1 122.85 2.8 119.2 4.5 117.8 8.25 116.4 12.05 118.1 15.75 119.8 19.35 123.6 20.75 139.4 26.65 152.35 39.6 176.2 63.45 176.2 97.1 176.2 101.8 175.75 106.15 172.9 134.05 152.35 154.6 128.5 178.45 94.85 178.45 71.45 178.5 52.9 167.05 52.45 166.65 51.9 166.4 44.228125 161.5177734375 37.4 154.65 37.3751953125 154.6248046875 37.35 154.6 34.5783203125 151.7748046875 32.15 148.95 22.75 135.7 22.85 118.6 22.85 115.5 23.1 112.55
L 23.1 112.65
Q 25 94.25 38.55 80.8
L 38.55 80.75
Q 54.1 65.05 76.25 65.05 87.25 65 96.65 68.95 100.4 70.5 104.15 69 107.8 67.45 109.35 63.7 110.95 59.95 109.4 56.3 107.85 52.55 104.2 51 91.25 45.65 76.25 45.6 46.035546875 45.6 24.75 67.05 24.725 67.075 24.7 67.1 6.296484375 85.5341796875 3.75 110.65
L 3.75 110.7
Q 3.4 114.55 3.4 118.6 3.45 141.95 16.3 160.1 16.4 160.3 16.55 160.5
L 16.6 160.6 16.8 160.85
Q 20.25 165.65 24.75 170.25 33.05 178.5 42.6 183.5 65.7 197.85 94.85 197.9 136.6 197.9 166.15 168.4 191.7 142.8 195.1 108.1 195.65 102.75 195.65 97.1 Z"/>
</g>
</defs>

<g transform="matrix( 1, 0, 0, 1, 0,0) ">
<use xlink:href="#Layer0_0_FILL"/>
</g>
</svg>
