
<svg xmlns="http://www.w3.org/2000/svg" version="1.1" xmlns:xlink="http://www.w3.org/1999/xlink" preserveAspectRatio="none" x="0px" y="0px" width="200px" height="200px" viewBox="0 0 200 200">
<defs>
<g id="Layer0_0_FILL">
<path fill="#333333" stroke="none" d="
M 183.75 117.35
Q 180.2 119.2 178.95 123.05 173.8 138.9 161.65 152.2
L 161.7 152.2
Q 139.25 176.65 106.05 178.1 101.4 178.35 97 178.1
L 97.2 178.15
Q 69.6 176.5 48.55 157.25 24.05 134.8 22.55 101.75 21.45 78.5 32.15 59.65
L 32.3 59.45 32.3 59.4 32.4 59.2
Q 36.85 51.3 43.45 44.1 46.05 41.25 48.75 38.8 49.8830078125 37.9107421875 51.05 37.1 53.133203125 35.641796875 55.3 34.4 66.7880859375 26.9625 81.7 24.95
L 82 24.9
Q 81.982421875 24.92421875 81.9 24.9 82.2646484375 24.8912109375 82.6 24.85
L 82.45 24.85 87.35 24.45
Q 106.931640625 22.6828125 123.65 32.05 128.1369140625 35.3181640625 129.85 39.25 132.9787109375 46.06875 127.35 50.7 115.876171875 40.20859375 99.25 40.2 86.34296875 40.2541015625 76.3 46.95 73.20078125 49.0642578125 72.45 52.7 71.747265625 56.346875 73.8 59.45 75.9068359375 62.550390625 79.55 63.25 83.195703125 63.9953125 86.3 61.9 91.95703125 58.1455078125 99.25 58.2 109.0693359375 58.191015625 116.05 65
L 116.05 65.05
Q 118.7451171875 67.654296875 120.35 70.65 120.57578125 71.1501953125 120.8 71.6 122.935546875 75.982421875 122.9 81.25 122.89140625 90.6875 116.15 97.35 116.11328125 97.4130859375 116.05 97.45 115.28125 98.1900390625 114.6 98.8 114.4865234375 98.9423828125 114.35 99 114.275 99.125 114.1 99.25 111.4943359375 101.91640625 111.5 105.65 111.49453125 109.3833984375 114.1 112 116.7666015625 114.65546875 120.5 114.65 124.2333984375 114.65546875 126.85 112 127.025 111.875 127.1 111.75
L 126.9 111.95
Q 127.6615234375 111.26328125 128.5 110.45 128.5814453125 110.3744140625 128.65 110.3 140.9083984375 98.3244140625 140.9 81.25 140.8744140625 74.3826171875 138.85 68.3 153.927734375 52.8892578125 146.95 33.75 144.158984375 23.0228515625 131.7 15.5
L 131.75 15.4
Q 110.29609375 2.8013671875 85.95 5.05 81.45 5.35 76.9 6.2 66.2 8.15 56.85 12.15
L 57.65 11.75
Q 54.24765625 13.0486328125 51.05 14.55 43.26796875 18.3326171875 36.7 23.5
L 36.5 23.6
Q 36.4 23.65 36.4 23.7 36.35 23.7 36.3 23.75 36.2 23.9 36.1 24
L 36.05 24
Q 35.95 24.05 35.9 24.1
L 35.85 24.15
Q 31.45 27.75 27.35 32.15 19.7 40.4 15.25 49.85
L 15.25 49.9
Q 15.15 50.1 15.05 50.3 1.8 73.7 3.05 102.6 4.9 143.8 35.4 171.6 61.7 195.65 96.05 197.6
L 96.15 197.6
Q 101.4 197.8 106.9 197.6 148.1 195.7 176.05 165.35 191.1 148.75 197.5 129 198.7 125.15 196.85 121.55 195 118 191.25 116.75 187.4 115.5 183.75 117.35 Z"/>
</g>
</defs>

<g transform="matrix( 1, 0, 0, 1, 0,0) ">
<use xlink:href="#Layer0_0_FILL"/>
</g>
</svg>
