
<svg xmlns="http://www.w3.org/2000/svg" version="1.1" xmlns:xlink="http://www.w3.org/1999/xlink" preserveAspectRatio="none" x="0px" y="0px" width="200px" height="200px" viewBox="0 0 200 200">
<defs>
<g id="Layer0_0_FILL">
<path fill="#333333" stroke="none" d="
M 182.6 4.2
Q 178.6 5.4 176.55 9.45
L 100.75 160.45 23.4 9.45
Q 21.4 5.45 17.45 4.25 13.4 3 9.95 5.35 6.4 7.6 5.4 12.15 5 13.7 5 15.2 5 18.05 6.35 20.7
L 92.3 188.55
Q 94.15 192.05 97.5 193.5 99.2 194.2 100.9 194.2 102.6 194.2 104.3 193.5 107.65 192.1 109.45 188.55
L 193.7 20.7
Q 195.05 17.95 195.05 15.1 195 13.55 194.75 12.2 193.6 7.7 190.05 5.4 186.45 3 182.6 4.2 Z"/>
</g>
</defs>

<g transform="matrix( 1, 0, 0, 1, 0,0) ">
<use xlink:href="#Layer0_0_FILL"/>
</g>
</svg>
